<svg xmlns="http://www.w3.org/2000/svg" viewBox="0 0 24 24" aria-hidden="true">
  <path fill="#000" d="M20.52 3.48A11.9 11.9 0 0 0 12.05 0C5.44 0 .06 5.38.06 12c0 2.11.55 4.17 1.6 5.99L0 24l6.22-1.63A11.92 11.92 0 0 0 12.05 24h.01c6.62 0 12-5.38 12-12a11.9 11.9 0 0 0-3.54-8.52ZM12.06 21.9h-.01a9.9 9.9 0 0 1-5.05-1.39l-.36-.21-3.69.97.99-3.59-.24-.37A9.88 9.88 0 0 1 2.16 12c0-5.46 4.44-9.9 9.9-9.9 2.64 0 5.13 1.03 7 2.9a9.84 9.84 0 0 1 2.9 7c0 5.46-4.44 9.9-9.9 9.9Zm5.76-7.42c-.31-.16-1.85-.91-2.14-1.01-.29-.11-.5-.16-.71.16-.21.31-.82 1.01-1.01 1.22-.18.21-.37.24-.68.08-.31-.16-1.31-.48-2.5-1.54-.93-.83-1.56-1.86-1.74-2.17-.18-.31-.02-.48.14-.63.14-.14.31-.37.47-.55.16-.18.21-.31.31-.52.1-.21.05-.39-.03-.55-.08-.16-.71-1.71-.97-2.34-.26-.63-.52-.54-.71-.55h-.61c-.21 0-.55.08-.84.39-.29.31-1.1 1.08-1.1 2.64 0 1.56 1.13 3.06 1.28 3.27.16.21 2.22 3.39 5.38 4.75.75.32 1.34.51 1.79.66.75.24 1.43.21 1.97.13.6-.09 1.85-.76 2.11-1.49.26-.73.26-1.36.18-1.49-.08-.13-.29-.21-.6-.37Z"></path>
</svg>
